<svg width="1249" height="288" viewBox="0 0 1249 288" fill="none" xmlns="http://www.w3.org/2000/svg">
<g clip-path="url(#clip0_2_1249)">
<mask id="mask0_2_1249" style="mask-type:luminance" maskUnits="userSpaceOnUse" x="0" y="0" width="1249" height="299">
<path d="M0.507812 0H1248.49V298.59H0.507812V0Z" fill="white"/>
</mask>
<g mask="url(#mask0_2_1249)">
<path d="M1248.46 0H39.7511V247.659H1248.46V0Z" fill="#E8F0FE"/>
<path d="M225.523 179.581C242.627 179.581 256.491 165.716 256.491 148.613C256.491 131.509 242.627 117.644 225.523 117.644C208.419 117.644 194.555 131.509 194.555 148.613C194.555 165.716 208.419 179.581 225.523 179.581Z" fill="white"/>
<path d="M308.116 199.543C346.564 199.543 377.731 168.377 377.731 129.929C377.731 91.4831 346.564 60.3152 308.116 60.3152C269.67 60.3152 238.502 91.4831 238.502 129.929C238.502 168.377 269.67 199.543 308.116 199.543Z" fill="white"/>
<path d="M391.99 163.603C409.652 163.603 423.969 149.285 423.969 131.623C423.969 113.961 409.652 99.6437 391.99 99.6437C374.328 99.6437 360.01 113.961 360.01 131.623C360.01 149.285 374.328 163.603 391.99 163.603Z" fill="white"/>
<path d="M435.815 155.023C448.739 155.023 459.215 144.547 459.215 131.623C459.215 118.7 448.739 108.224 435.815 108.224C422.892 108.224 412.416 118.7 412.416 131.623C412.416 144.547 422.892 155.023 435.815 155.023Z" fill="white"/>
<path d="M482.493 150.124C499.576 150.124 513.424 136.275 513.424 119.192C513.424 102.109 499.576 88.2608 482.493 88.2608C465.41 88.2608 451.562 102.109 451.562 119.192C451.562 136.275 465.41 150.124 482.493 150.124Z" fill="white"/>
<path d="M516.179 126.663C524.276 126.663 530.84 120.099 530.84 112.002C530.84 103.904 524.276 97.3403 516.179 97.3403C508.082 97.3403 501.517 103.904 501.517 112.002C501.517 120.099 508.082 126.663 516.179 126.663Z" fill="white"/>
<path d="M539.725 144.274C550.656 144.274 559.517 135.412 559.517 124.482C559.517 113.55 550.656 104.689 539.725 104.689C528.794 104.689 519.933 113.55 519.933 124.482C519.933 135.412 528.794 144.274 539.725 144.274Z" fill="white"/>
<path d="M564.49 147.187C572.648 147.187 579.261 140.574 579.261 132.416C579.261 124.257 572.648 117.644 564.49 117.644C556.331 117.644 549.719 124.257 549.719 132.416C549.719 140.574 556.331 147.187 564.49 147.187Z" fill="white"/>
<path d="M601.697 161.397C617.024 161.397 629.448 148.973 629.448 133.646C629.448 118.321 617.024 105.896 601.697 105.896C586.372 105.896 573.947 118.321 573.947 133.646C573.947 148.973 586.372 161.397 601.697 161.397ZM684.827 136.925C701.964 136.925 715.856 123.032 715.856 105.896C715.856 88.7592 701.964 74.8669 684.827 74.8669C667.691 74.8669 653.798 88.7592 653.798 105.896C653.798 123.032 667.691 136.925 684.827 136.925Z" fill="white"/>
<path d="M720.171 110.21C739.69 110.21 755.514 94.3861 755.514 74.8669C755.514 55.3476 739.69 39.5236 720.171 39.5236C700.651 39.5236 684.827 55.3476 684.827 74.8669C684.827 94.3861 700.651 110.21 720.171 110.21Z" fill="white"/>
<path d="M757.854 80.4731C759.408 80.4731 760.947 80.167 762.383 79.5723C763.818 78.9776 765.123 78.1059 766.222 77.007C767.321 75.9081 768.192 74.6035 768.787 73.1678C769.382 71.732 769.688 70.1932 769.688 68.6391C769.688 67.0851 769.382 65.5463 768.787 64.1105C768.192 62.6748 767.321 61.3702 766.222 60.2713C765.123 59.1724 763.818 58.3007 762.383 57.706C760.947 57.1113 759.408 56.8052 757.854 56.8052C754.715 56.8052 751.705 58.052 749.486 60.2713C747.267 62.4906 746.02 65.5006 746.02 68.6391C746.02 71.7777 747.267 74.7877 749.486 77.007C751.705 79.2263 754.715 80.4731 757.854 80.4731Z" fill="white"/>
<path d="M781.51 82.0574C790.549 82.0574 797.877 74.7292 797.877 65.6898C797.877 56.6505 790.549 49.3222 781.51 49.3222C772.47 49.3222 765.142 56.6505 765.142 65.6898C765.142 74.7292 772.47 82.0574 781.51 82.0574ZM830.503 97.9985C841.669 97.9985 850.721 88.9457 850.721 77.7797C850.721 66.6136 841.669 57.5608 830.503 57.5608C819.337 57.5608 810.284 66.6136 810.284 77.7797C810.284 88.9457 819.337 97.9985 830.503 97.9985Z" fill="white"/>
<path d="M867.004 104.592C878.171 104.592 887.223 95.5391 887.223 84.373C887.223 73.207 878.171 64.1542 867.004 64.1542C855.838 64.1542 846.785 73.207 846.785 84.373C846.785 95.5391 855.838 104.592 867.004 104.592Z" fill="white"/>
<path d="M913.633 123.677C933.839 123.677 950.219 107.297 950.219 87.0908C950.219 66.8842 933.839 50.5044 913.633 50.5044C893.426 50.5044 877.046 66.8842 877.046 87.0908C877.046 107.297 893.426 123.677 913.633 123.677Z" fill="white"/>
<path d="M945.149 120.143C951.63 120.143 956.885 114.889 956.885 108.406C956.885 101.924 951.63 96.67 945.149 96.67C942.036 96.67 939.051 97.9066 936.85 100.108C934.649 102.309 933.413 105.294 933.413 108.406C933.413 111.519 934.649 114.504 936.85 116.705C939.051 118.906 942.036 120.143 945.149 120.143Z" fill="white"/>
<path d="M961.943 136.279C969.859 136.279 976.276 129.862 976.276 121.947C976.276 114.031 969.859 107.614 961.943 107.614C954.027 107.614 947.611 114.031 947.611 121.947C947.611 129.862 954.027 136.279 961.943 136.279Z" fill="white"/>
<path d="M223.853 116.852C229.062 116.848 234.206 117.999 238.916 120.223C243.626 122.446 247.785 125.686 251.092 129.71M391.88 98.8272C398.479 98.848 404.917 100.86 410.353 104.6C415.79 108.34 419.97 113.634 422.348 119.789M370.796 98.1325C373.013 102.559 374.753 107.208 375.988 112.002M505.283 97.3282C507.36 99.5568 509.123 102.058 510.524 104.762M451.062 116.999C451.19 114.094 451.727 111.222 452.658 108.467M529.548 104.567C530.768 106.868 531.404 109.434 531.401 112.038M558.579 116.438C559.281 118.269 559.728 120.188 559.907 122.142M574.897 124.311C575.804 121.756 577.033 119.328 578.554 117.084M683.621 74.2331C687.903 74.1872 692.162 74.8587 696.222 76.2197M748.433 60.5224C749.608 59.1535 751.059 58.0485 752.691 57.2798C754.323 56.511 756.099 56.096 757.903 56.0618M764.654 65.6411C764.616 62.9635 765.21 60.3147 766.39 57.9108C767.57 55.5068 769.301 53.4158 771.443 51.8084M844.64 62.3992C846.743 64.3526 848.42 66.7196 849.565 69.3517C850.71 71.9837 851.299 74.824 851.294 77.6943M876.315 87.0908C876.419 77.711 879.977 68.6987 886.309 61.7777M950.816 87.0908C950.822 92.1659 949.789 97.1885 947.782 101.85M957.47 108.151C957.498 110.259 957.035 112.345 956.118 114.244" stroke="#E8F0FE" stroke-width="1.21873" stroke-linecap="round" stroke-linejoin="round"/>
<path d="M293.955 119.192L381.618 143.177L391.161 133.646L387.078 119.192L421.593 134.463L352.076 158.618L411.599 198.227H441.568L437.753 183.151L422.434 175.339L415.962 165.711L465.004 186.6L462.469 176.972L456.717 175.705L449.027 165.894L494.437 190.781L524.052 198.227L397.413 236.825L382.143 197.24L314.21 179.581L298.001 183.846L326.361 138.972L316.075 144.274L310.786 131.623H304.546L293.955 119.192ZM789.639 57.5609L897.96 98.7541L1065.63 141.349L1050.3 167.917L984.49 147.187L883.481 135.011L891.5 105.896L819.095 94.4763L824.823 77.7797L804.227 76.0369L789.639 57.5609Z" fill="#AECBFA"/>
<path d="M226.961 155.035L293.955 119.192L304.546 131.623H310.786L316.075 144.274L326.361 138.972L298.001 183.846L314.21 179.581L382.142 197.24L397.413 236.825L297.696 260.505L226.961 155.035ZM387.078 119.192L357.597 136.608L381.618 143.177L391.161 133.646L387.078 119.192ZM352.076 158.618L421.593 134.463L499.628 107.492L541.455 138.095L524.052 142.616L615.323 169.087L485.333 185.796L449.027 165.894L456.717 175.705L462.469 176.972L465.004 186.6L415.962 165.711L422.434 175.339L437.753 183.151L441.568 198.227H411.599L352.076 158.618Z" fill="#E8F0FE"/>
<path d="M499.628 107.492L541.455 138.095L524.052 142.616L627.717 173.999L574.788 147.187L591.545 140.191L526.672 117.644L499.628 107.492Z" fill="#AECBFA"/>
<path d="M574.788 147.187L789.639 57.5609L804.227 76.0369L824.823 77.7797L819.095 94.4763L891.5 105.896L883.481 135.011L984.49 147.187L1050.3 167.917L1041.43 203.967L915.241 187.368H674.895L764.508 148.747L627.718 173.999L574.788 147.187Z" fill="#E8F0FE"/>
<path d="M1194.25 0.00853262L1175.37 74.0503L1157.09 39.5236L1131.98 130.758L1106.86 87.0908L1091.53 121.947L1074.21 9.26239L1053.34 156.729L1026.93 70.0407L1004.75 161.446L980.919 122.105L960.201 182.347C939.482 178.691 918.763 183.773 894.06 183.773C869.027 183.773 843.421 175.315 828.163 176.607C812.904 177.899 791.905 185.138 757.732 181.64C723.559 178.142 679.733 183.773 679.733 183.773L761.266 150.233C699.221 158.436 639.125 161.495 639.125 161.495C608.656 161.495 573.837 172.67 573.837 172.67C508.55 176.119 485.235 185.857 485.235 185.857L494.339 190.842L507.136 194.059L478.398 201.25L449.246 205.028C436.949 207.1 417.23 216.459 403.921 223.443C402.422 220.603 401.008 220.201 401.008 220.201C400.161 221.276 399.562 222.524 399.253 223.857C398.697 221.342 397.626 218.968 396.109 216.886C393.94 218.92 392.418 221.548 391.734 224.442C391.573 222.668 390.97 220.962 389.979 219.482C387.842 220.955 386.067 222.892 384.787 225.149C384.544 222.211 383.316 219.441 381.301 217.288C377.852 219.726 377.84 222.602 377.865 223.126C377.825 220.727 377.056 218.398 375.659 216.447C370.784 219.579 368.773 228.757 368.773 228.757C368.899 226.706 368.388 224.667 367.31 222.919C362.435 223.967 361.131 226.843 361.131 226.843C358.511 217.861 353.039 215.655 353.039 215.655C350.699 223.918 353.746 229.305 353.746 229.305C350.839 229.245 347.961 229.894 345.361 231.194C346.809 229.047 347.444 226.455 347.153 223.882C345.084 224.341 343.272 225.581 342.095 227.343C342.832 224.767 342.673 222.017 341.644 219.543C339.505 220.405 337.672 221.886 336.379 223.796C337.598 218.665 335.635 212.035 335.635 212.035C331.492 214.826 330.163 221.542 330.163 221.542C329.924 220.725 329.406 220.018 328.701 219.543C328.071 220.133 327.587 220.863 327.289 221.673C326.991 222.484 326.886 223.353 326.982 224.211C312.76 212.413 304.351 209.111 300.585 208.184C302.087 206.056 303.042 203.591 303.363 201.006C300.984 200.867 298.638 201.619 296.782 203.114C298.142 199.585 298.142 195.675 296.782 192.146C293.443 192.816 290.201 198.727 290.201 198.727C290.527 194.307 289.265 189.917 286.642 186.345C278.038 192.511 274.455 199.556 273.102 203.59L201.904 74.0503L168.693 138.704L149.888 48.3472L138.14 129.71L97.58 1.4808e-06H91.1207L80.5421 33.7955L67.6942 -0.00852966H0.507812V298.59H1248.49V0.00853262H1194.25ZM946.319 222.87C915.644 215.411 860.021 225.307 860.021 225.307C826.115 222.322 800.302 230.877 800.302 230.877C791.495 224.115 780.907 220.066 769.834 219.226C843.446 191.11 928.513 193.986 955.63 195.814L946.319 222.87Z" fill="white"/>
<path d="M415.962 165.711L397.413 183.078L417.937 168.649L415.962 165.711ZM449.027 165.894L439.277 175.644L441.263 176.485L451.83 169.465L449.027 165.894ZM524.052 142.616L499.628 165.894L524.052 153.707L521.846 147.187L527.891 143.786L524.052 142.616ZM406.566 224.247L408.626 212.584L411.039 224.247L413.354 205.393L416.486 219.957L419.168 205.028L422.47 217.91M431.952 211.816L432.927 205.564L434.268 211.816H431.952ZM440.8 207.953L442.043 201.25L444.993 208.806L446.431 201.762L449.295 207.953M468.831 202.907L469.258 199.629C469.282 199.524 469.341 199.43 469.425 199.363C469.509 199.297 469.613 199.262 469.721 199.262C469.828 199.262 469.932 199.297 470.017 199.363C470.101 199.43 470.16 199.524 470.184 199.629L470.83 202.932L474.596 202.31L475.254 197.776L476.253 202.907L481.189 201.688L481.993 194.474L482.725 201.25L483.724 200.713L483.98 197.374C483.992 197.32 484.022 197.272 484.066 197.238C484.109 197.203 484.162 197.184 484.218 197.184C484.273 197.184 484.326 197.203 484.369 197.238C484.413 197.272 484.443 197.32 484.455 197.374L485.065 201.03L486.868 200.092L487.124 196.96L488.063 200.092M947.221 224.308C947.221 224.308 946.989 217.581 941.127 208.721C941.127 208.721 938.69 212.267 938.69 219.116C936.913 216.763 934.609 214.859 931.962 213.559C931.962 213.559 930.073 215.801 933.973 225.368L947.221 224.308ZM920.896 224.893C921.016 222.263 920.819 219.628 920.311 217.044C919.165 217.399 918.107 217.995 917.21 218.791C916.312 219.588 915.596 220.567 915.107 221.663C916.109 218.653 916.109 215.399 915.107 212.389C915.107 212.389 908.855 216.52 907.673 222.773C906.895 220.615 905.646 218.658 904.017 217.044C901.846 220.595 901.049 224.817 901.774 228.915C903.078 235.52 920.896 224.893 920.896 224.893ZM884.31 231.072C884.841 228.536 884.961 225.931 884.663 223.358C883.328 223.848 882.114 224.621 881.105 225.624C881.26 222.79 880.909 219.951 880.069 217.239C877.441 217.84 875.155 219.451 873.707 221.724C873.707 221.724 874.402 220.506 872.378 216.057C870.977 217.153 869.862 218.573 869.132 220.195C868.401 221.817 868.077 223.593 868.186 225.368L884.31 231.072ZM862.568 225.624C862.568 225.624 863.555 219.908 861.081 215.326C859.486 216.289 858.269 217.768 857.632 219.518C857.632 219.518 857.827 217.788 856.157 214.193C854.137 216.201 852.922 218.881 852.745 221.724C852.745 221.724 853.001 220.201 848.686 217.666C848.181 219.032 848.1 220.519 848.455 221.932C847.253 220.978 845.747 220.489 844.214 220.554C844.25 223.139 844.911 225.677 846.139 227.952L862.568 225.624Z" fill="white"/>
<path d="M881.251 234.546C881.251 234.546 889.563 227.038 894.218 212.389" stroke="white" stroke-width="1.21873" stroke-miterlimit="10"/>
<path d="M894.218 213.937C894.629 213.937 895.023 213.773 895.313 213.483C895.603 213.192 895.766 212.798 895.766 212.388C895.766 211.977 895.602 211.583 895.312 211.293C895.021 211.003 894.628 210.84 894.217 210.84C894.014 210.84 893.812 210.88 893.624 210.958C893.436 211.036 893.266 211.15 893.122 211.294C892.832 211.584 892.669 211.978 892.669 212.389C892.669 212.8 892.833 213.193 893.123 213.484C893.414 213.774 893.807 213.937 894.218 213.937ZM833.22 212.121C833.631 212.121 834.025 211.957 834.315 211.667C834.605 211.376 834.768 210.982 834.768 210.572C834.768 210.161 834.605 209.767 834.314 209.477C834.024 209.187 833.63 209.024 833.219 209.024C833.016 209.024 832.814 209.064 832.627 209.142C832.439 209.22 832.268 209.334 832.124 209.478C831.834 209.768 831.671 210.162 831.671 210.573C831.672 210.984 831.835 211.377 832.125 211.668C832.416 211.958 832.81 212.121 833.22 212.121Z" fill="white"/>
<path d="M891.829 218.702L896.887 217.044M888.77 224.674L886.455 219.909M835.841 226.063C835.713 220.801 834.83 215.584 833.22 210.573M835.049 216.24L837.913 212.937M835.39 220.201L831.209 217.227" stroke="white" stroke-width="1.21873" stroke-miterlimit="10"/>
<path d="M961.175 182.445L958.056 172.317L955.045 185.15L951.937 174.827L949.634 185.552L939.787 185.979L935.277 167.917L931.853 186.466L929.415 174.279L927.465 186.466L921.018 185.309L917.91 171.049L915.96 179.154L914.912 168.332C914.903 168.215 914.852 168.105 914.769 168.023C914.685 167.941 914.575 167.891 914.458 167.884C914.341 167.878 914.226 167.913 914.132 167.984C914.039 168.055 913.975 168.156 913.95 168.271L911.317 180.141L910.098 169.965L905.906 185.321L898.143 183.09L895.815 163.444L893.146 182.944V192.767L953.132 191L962.236 186.515L961.175 182.445ZM848.333 179.02L846.493 166.065L843.275 179.91L833.025 178.386L830.381 166.735C830.356 166.628 830.295 166.532 830.209 166.463C830.123 166.394 830.016 166.357 829.906 166.356C829.795 166.356 829.688 166.394 829.601 166.462C829.515 166.532 829.455 166.628 829.43 166.735L826.81 179.276L819.985 177.935L818.998 159.008L816.682 179.897L815.354 166.747C815.354 166.644 815.313 166.545 815.24 166.471C815.167 166.398 815.067 166.357 814.964 166.357C814.86 166.357 814.761 166.398 814.688 166.471C814.615 166.545 814.574 166.644 814.574 166.747L813.014 180.97L806.92 180.251L804.483 168.063L803.422 182.115H794.562L793.039 171.342L791.199 183.176L789.383 176.351C789.35 176.222 789.275 176.108 789.171 176.026C789.066 175.945 788.937 175.9 788.804 175.9C788.671 175.9 788.542 175.945 788.437 176.026C788.332 176.108 788.257 176.222 788.225 176.351L786.592 183.444L782.631 167.6L779.877 183.444H772.857L771.869 169.94L770.419 184.029L767.982 182.579L767.506 173.877C767.491 173.805 767.452 173.741 767.396 173.695C767.339 173.648 767.269 173.623 767.196 173.622C767.122 173.622 767.051 173.648 766.995 173.694C766.938 173.74 766.899 173.805 766.885 173.877L764.764 184.029L762.851 166.723L759.268 182.883L753.686 181.311L752.382 169.014L750.103 177.935L748.116 165.419L745.983 177.021L744.07 168.697L740.56 182.103L735.295 181.567L733.833 173.779C733.805 173.606 733.718 173.448 733.586 173.331C733.455 173.214 733.288 173.146 733.112 173.138C732.937 173.13 732.765 173.182 732.623 173.285C732.481 173.388 732.379 173.537 732.334 173.706L729.896 181.957L714.053 181.421L712.529 173.255L709.775 181.957L708.593 175.278L706.838 181.616H702.012L700.866 176.046L699.952 182.298H696.673L695.589 176.899L694.212 182.993L794.562 190.622L849.783 188.904L848.333 179.02Z" fill="white"/>
<path d="M723.644 173.146V182.81M726.228 151.732V161.397M723.083 153.622V163.286M729.287 151.732V161.397M735.904 152.317V156.815M738.622 150.611V155.108M742.108 151.367V155.864M713.724 153.999V163.664M711.128 155.352V165.017M701.816 153.11V162.774M699.184 155.352V165.017M695.881 154.889V164.554M684.425 154.56V164.225M680.562 156.571V166.235M677.003 157.619V167.284M672.945 157.619V167.284M669.057 155.352V165.017M666.546 157.619V167.284M663.451 156.571V166.235M651.202 157.302V166.967M649.252 159.398V169.063M646.839 157.948V167.613M643.768 159.715V169.38M640.77 160.934V170.598M636.602 159.155V168.819M633.384 157.948V167.613M627.51 160.178V169.843M625.012 159.398V169.063M621.819 161.397V171.062M618.223 160.178V169.843M612.252 162.457V172.122M608.766 163.03V172.695M606.28 162.128V171.793M603.428 163.981V173.645M598.151 163.286V172.951M520.444 174.572V184.236M517.41 176.424V186.076M510.926 177.618V187.283M507.172 177.119V186.771M504.357 179.398V189.062M500.823 178.898V188.563M497.873 180.495V190.159" stroke="white" stroke-width="1.21873" stroke-miterlimit="10" stroke-linecap="round"/>
<path d="M656.772 155.864L655.005 163.664L658.966 163.981L656.772 155.864ZM688.52 153.621L686.668 160.934H690.799L688.52 153.621ZM717.904 149.673L716.307 157.948L720.171 157.619L717.904 149.673ZM590.168 169.38L589.327 163.664L588.401 171.062L590.168 169.38ZM583.514 170.598L581.491 164.554L579.894 172.695L577.53 172.951L576.275 167.613L574.873 173.999H571.973L570.961 165.772L570.12 174.681H567.597L565.915 169.843L565.16 174.681L561.443 175.193L560.053 170.598L559.383 175.522L546.379 176.79L545.197 171.062L544.015 177.204H540.31L538.884 171.062L537.446 178.008L534.667 177.375L533.57 172.122L532.486 178.008H527.891L526.087 172.951L524.564 178.727L522.626 174.937L522.041 178.727L522.797 181.25H560.053L585.281 176.363L583.514 170.598Z" fill="white"/>
<path d="M93.5217 203.967V31.4068M93.5217 87.0908L77.0687 70.6501M93.5217 123.275L117.482 99.3147M93.5217 165.711L65.8198 138.01M150.534 87.0908V188.051M150.534 132.416L161.259 121.703M150.534 165.711L139.858 155.035M201.94 88.2608V201.786M214.042 111.173L201.94 123.275M201.94 173.999L176.798 148.856M982.223 145.651V221.663M993.643 164.249L983.064 174.827M966.245 191L982.223 206.99M1027.26 101.85V198.995M1037.37 125.091L1027.9 134.548M1013.54 164.249L1027.26 177.947M1074.88 49.3344V177.947M1082.06 92.1363L1074.88 99.3147M1062.16 141.081L1074.88 153.804M1107.33 108.406V187.539M1119.75 126.919L1107.33 139.338M1094.91 157.375L1107.33 169.794M1158.89 65.6898V165.894M1171.08 96.67L1159.11 108.638M1144.75 120.143L1158.89 134.268" stroke="#E8F0FE" stroke-width="1.21873" stroke-linecap="round" stroke-linejoin="round"/>
<path d="M327.482 191.085C327.986 191.085 328.47 190.885 328.827 190.529C329.183 190.172 329.383 189.688 329.383 189.184C329.383 188.68 329.183 188.196 328.827 187.84C328.47 187.483 327.986 187.283 327.482 187.283C326.978 187.283 326.494 187.483 326.138 187.84C325.781 188.196 325.581 188.68 325.581 189.184C325.581 189.688 325.781 190.172 326.138 190.529C326.494 190.885 326.978 191.085 327.482 191.085Z" fill="white"/>
<path d="M310.188 212.194C310.188 212.194 315.514 196.57 327.482 189.184M319.353 196.326L318.147 190.586M314.893 202.542H320.267M360.632 228.33C360.632 228.33 361.582 215.277 367.944 207.733" stroke="white" stroke-width="1.21873" stroke-miterlimit="10"/>
<path d="M328.555 208.757C329.059 208.757 329.543 208.556 329.899 208.2C330.256 207.843 330.456 207.359 330.456 206.855C330.456 206.35 330.255 205.867 329.898 205.51C329.542 205.153 329.058 204.953 328.553 204.953C328.304 204.953 328.056 205.003 327.826 205.098C327.595 205.194 327.385 205.334 327.209 205.511C327.032 205.688 326.892 205.897 326.797 206.128C326.701 206.359 326.652 206.606 326.652 206.856C326.652 207.106 326.702 207.353 326.797 207.584C326.893 207.814 327.033 208.024 327.21 208.2C327.386 208.377 327.596 208.517 327.827 208.613C328.058 208.708 328.305 208.757 328.555 208.757ZM367.932 209.744C368.436 209.744 368.92 209.544 369.277 209.187C369.633 208.83 369.833 208.346 369.833 207.842C369.833 207.337 369.633 206.854 369.276 206.497C368.919 206.141 368.435 205.94 367.931 205.941C367.681 205.941 367.434 205.99 367.203 206.086C366.972 206.181 366.763 206.321 366.586 206.498C366.23 206.855 366.029 207.339 366.03 207.843C366.03 208.347 366.23 208.831 366.587 209.188C366.944 209.544 367.428 209.744 367.932 209.744Z" fill="white"/>
<path d="M328.993 208.331C328.993 208.331 332.247 218.885 331.248 225.149M364.093 214.193L361.29 208.331M362.167 219.835L366.908 218.702M326.58 213.79L330.541 214.583M330.224 211.536L332.577 209.171" stroke="white" stroke-width="1.21873" stroke-miterlimit="10"/>
<path d="M577.323 31.0534L575.641 31.4799C575.477 31.5221 575.324 31.6006 575.194 31.7095C575.064 31.8184 574.961 31.955 574.89 32.1093C574.82 32.2636 574.786 32.4317 574.789 32.6012C574.792 32.7707 574.834 32.9372 574.91 33.0887L580.089 43.4113L589.973 40.9007L578.846 31.4068C578.638 31.2324 578.391 31.1096 578.127 31.0482C577.862 30.9868 577.587 30.9886 577.323 31.0534Z" fill="#8AB4F8"/>
<path d="M580.089 43.4113L574.91 33.0887C574.833 32.9373 574.791 32.7707 574.787 32.601C574.784 32.4313 574.818 32.2629 574.888 32.1084C574.959 31.9539 575.063 31.8172 575.193 31.7084C575.323 31.5996 575.476 31.5215 575.641 31.4799L575.946 31.4068L581.759 42.9848L580.089 43.4113Z" fill="white"/>
<path d="M565.191 46.5642L599.891 37.9319C600.255 37.8414 600.632 37.8235 601.003 37.879C601.373 37.9345 601.729 38.0625 602.05 38.2556C602.371 38.4486 602.651 38.703 602.873 39.0042C603.096 39.3055 603.257 39.6476 603.348 40.0111C603.485 40.5595 603.457 41.1364 603.267 41.6689C603.077 42.2014 602.734 42.6657 602.28 43.0031C601.978 43.2265 601.635 43.388 601.271 43.4784L566.571 52.1107L565.191 46.5642Z" fill="white"/>
<path d="M565.745 41.9489C565.533 41.999 565.333 42.0907 565.157 42.2185C564.98 42.3463 564.831 42.5077 564.717 42.6935C564.604 42.8795 564.529 43.0861 564.496 43.3014C564.463 43.5166 564.473 43.7363 564.526 43.9476L565.854 49.3344L571.717 47.8719L567.414 42.5095C567.218 42.2674 566.957 42.0862 566.661 41.9869C566.365 41.8877 566.048 41.8745 565.745 41.9489Z" fill="white"/>
<path d="M566.598 52.2715L601.344 43.6307C601.965 43.4762 602.516 43.1167 602.908 42.6102C603.299 42.1037 603.508 41.4799 603.501 40.8398L566.11 50.1387L566.598 52.2715Z" fill="#8AB4F8"/>
<path d="M584.074 60.9367L582.393 61.3511C582.144 61.4156 581.88 61.3929 581.645 61.287C581.411 61.181 581.22 60.9981 581.103 60.7686C581.025 60.6168 580.983 60.4492 580.979 60.2786L580.625 48.7494L590.522 46.3119L585.196 59.9252C585.099 60.1685 584.948 60.3863 584.753 60.5618C584.559 60.7372 584.326 60.8655 584.074 60.9367Z" fill="#8AB4F8"/>
<path d="M580.625 48.7494L580.93 60.2908C580.934 60.4615 580.976 60.6292 581.053 60.7812C581.131 60.9332 581.242 61.0656 581.379 61.1683C581.514 61.2719 581.672 61.3434 581.839 61.3772C582.006 61.4109 582.179 61.4062 582.344 61.3633L582.649 61.2902L582.307 48.335L580.625 48.7494Z" fill="white"/>
<path d="M861.849 206.624H920.847" stroke="#AECBFA" stroke-width="1.21873" stroke-miterlimit="10"/>
<path d="M891.902 173.06C891.348 171.494 891.259 169.801 891.647 168.185" stroke="#F4AFB6" stroke-width="2.41309" stroke-miterlimit="10" stroke-linecap="round"/>
<path d="M892.877 171.586C893.115 173.304 893.984 174.872 895.315 175.985C895.951 176.506 896.691 176.885 897.486 177.095C898.281 177.305 899.111 177.342 899.922 177.204L900.507 181.092C899.163 181.308 897.789 181.241 896.473 180.895C895.157 180.549 893.928 179.931 892.865 179.081C890.762 177.351 889.387 174.893 889.014 172.195C888.978 172.002 888.953 171.806 888.941 171.61" fill="#56A55C"/>
<path d="M903.359 175.254H899.385V178.398H903.359V175.254Z" fill="#F4AFB6"/>
<path d="M902.115 176.668C902.671 176.668 903.221 176.558 903.734 176.346C904.247 176.133 904.713 175.821 905.106 175.429C905.499 175.036 905.81 174.569 906.023 174.056C906.235 173.543 906.345 172.993 906.345 172.438C906.344 171.882 906.235 171.332 906.022 170.819C905.81 170.306 905.498 169.84 905.105 169.447C904.712 169.054 904.246 168.743 903.733 168.53C903.22 168.318 902.67 168.208 902.114 168.209C900.993 168.209 899.917 168.655 899.124 169.448C898.331 170.241 897.885 171.317 897.885 172.439C897.885 173.561 898.331 174.636 899.125 175.429C899.918 176.222 900.994 176.668 902.115 176.668Z" fill="#EE675C"/>
<path d="M901.153 177.326H903.054C903.906 177.441 904.701 177.821 905.326 178.411C905.951 179.001 906.375 179.772 906.54 180.617L906.32 190.61H893.584L894.925 177.204" fill="#56A55C"/>
<path d="M895.157 190.61L891.5 207.234H896.497L900.153 195.765L900.958 207.234H906.028C906.028 207.234 906.174 200.896 906.357 190.61H895.157Z" fill="#343659"/>
<path d="M870.441 132.513H864.591V141.227H870.441V132.513ZM881.933 150.026C886.665 154.145 890.595 159.103 893.523 164.651C893.523 164.651 894.584 167.198 893.121 168.673C893.121 168.673 891.391 170.306 890.172 168.673C888.953 167.04 890.379 165.017 890.379 165.017C890.379 165.017 887.186 160.434 879.41 154.17L881.933 150.026Z" fill="#F4AFB6"/>
<path d="M874.523 135.072L880.459 136.913C886.894 138.887 888.782 133.5 888.782 133.5C903.858 138.144 904.87 126.98 904.87 126.98C901.701 131.855 896.522 129.04 889.989 126.98C883.457 124.92 882.811 129.247 882.811 129.247C880.606 128.536 878.543 127.443 876.717 126.017C874.779 124.274 872.866 122.251 870.343 121.386C869.049 120.929 867.654 120.841 866.313 121.131C864.972 121.422 863.739 122.08 862.75 123.031C862 123.838 861.448 124.81 861.14 125.868C860.831 126.925 860.773 128.041 860.971 129.125C861.123 130.328 861.517 131.488 862.128 132.535C862.74 133.582 863.557 134.495 864.53 135.219C868.942 138.436 874.523 135.072 874.523 135.072Z" fill="#EE675C"/>
<path d="M876.352 176.071C878.612 187.029 882.66 197.54 888.332 207.185H878.448C873.743 201.413 870.085 194.864 867.638 187.831C867.638 187.831 869.685 204.26 870.684 207.185H861.751C855.761 193.234 854.436 177.722 857.973 162.957H875.425V164.285C875.267 168.237 875.578 172.193 876.352 176.071Z" fill="#F9AB00"/>
<path d="M875.376 166.382H851.818L856.608 143.957L849.478 136.84L854.829 131.489L862.409 137.888C862.409 137.888 874.816 140.398 881.909 150.075C880.463 153.08 878.5 155.807 876.108 158.131L875.376 166.382Z" fill="#4285F4"/>
<path d="M876.121 138.117L862.46 138.019C862.159 138.017 861.861 138.074 861.582 138.187C861.303 138.3 861.049 138.467 860.835 138.678C860.621 138.889 860.45 139.141 860.333 139.418C860.216 139.695 860.154 139.993 860.152 140.293L860.013 159.72C860.011 160.021 860.068 160.319 860.181 160.598C860.295 160.877 860.462 161.131 860.673 161.345C860.884 161.559 861.136 161.73 861.413 161.847C861.69 161.964 861.988 162.025 862.288 162.027L875.949 162.125C876.25 162.127 876.549 162.07 876.827 161.957C877.106 161.844 877.36 161.677 877.574 161.466C877.789 161.254 877.959 161.003 878.077 160.726C878.194 160.449 878.255 160.151 878.258 159.85L878.396 140.424C878.399 140.123 878.341 139.825 878.228 139.546C878.115 139.267 877.948 139.013 877.737 138.799C877.525 138.585 877.274 138.414 876.997 138.297C876.72 138.18 876.422 138.119 876.121 138.117Z" fill="#4B4D75"/>
<path d="M866.76 162.019H862.299C861.846 162.018 861.403 161.882 861.026 161.629C860.65 161.375 860.358 161.015 860.187 160.595C860.074 160.316 860.017 160.017 860.02 159.715L860.154 140.289C860.16 139.679 860.407 139.097 860.841 138.67C861.275 138.243 861.861 138.005 862.47 138.01H864.505C864.806 138.01 865.103 138.071 865.38 138.187C865.657 138.304 865.908 138.475 866.118 138.69C866.329 138.904 866.495 139.157 866.607 139.436C866.72 139.714 866.776 140.013 866.772 140.313L866.76 162.019Z" fill="#343757"/>
<path d="M854.841 131.489L832.026 110.417C831.886 110.295 831.706 110.227 831.52 110.227C831.334 110.227 831.155 110.295 831.015 110.417C830.875 110.547 830.791 110.725 830.777 110.915C830.764 111.105 830.822 111.293 830.941 111.441L833.294 114.269V115.024C833.289 115.931 833.634 116.804 834.256 117.462L851.087 135.28L854.841 131.489Z" fill="#F4AFB6"/>
<path d="M869.124 207.185C867.321 199.336 864.627 184.748 866.687 174.133L868.174 174.425C867.308 178.861 866.504 189.16 870.611 207.185H869.124Z" fill="#F29900"/>
<path d="M865.663 167.686C864.607 167.629 863.614 167.17 862.887 166.402C862.16 165.635 861.755 164.617 861.756 163.56C861.755 162.503 862.159 161.486 862.886 160.718C863.613 159.95 864.607 159.491 865.663 159.435H878.582C879.142 159.404 879.703 159.488 880.23 159.682C880.757 159.876 881.239 160.175 881.647 160.561C882.055 160.947 882.379 161.412 882.601 161.928C882.823 162.443 882.938 162.999 882.938 163.56C882.938 164.122 882.823 164.677 882.601 165.193C882.379 165.709 882.055 166.174 881.647 166.56C881.239 166.946 880.757 167.245 880.23 167.439C879.703 167.632 879.142 167.716 878.582 167.686H865.663Z" fill="#EA4335"/>
<path d="M865.663 167.686C866.204 167.686 866.74 167.579 867.24 167.372C867.739 167.165 868.193 166.862 868.576 166.479C868.958 166.097 869.262 165.643 869.469 165.143C869.676 164.643 869.782 164.107 869.782 163.566C869.782 163.025 869.676 162.49 869.469 161.99C869.262 161.49 868.958 161.036 868.576 160.654C868.193 160.271 867.739 159.968 867.24 159.761C866.74 159.554 866.204 159.447 865.663 159.447C864.571 159.447 863.523 159.881 862.75 160.654C861.978 161.426 861.544 162.474 861.544 163.566C861.544 164.659 861.978 165.707 862.75 166.479C863.523 167.252 864.571 167.686 865.663 167.686Z" fill="#C5221F"/>
<path d="M872.013 138.046H878.106C878.715 138.052 879.297 138.299 879.724 138.733C880.151 139.167 880.389 139.753 880.385 140.362L880.312 147.077C880.311 147.378 880.251 147.676 880.134 147.953C880.017 148.23 879.847 148.482 879.632 148.693C879.419 148.905 879.165 149.072 878.887 149.186C878.608 149.3 878.31 149.358 878.009 149.356H871.83" fill="#4B4D75"/>
<path d="M878.338 150.026H869.807C869.314 150.026 868.826 149.929 868.37 149.741C867.915 149.552 867.501 149.276 867.152 148.927C866.804 148.579 866.527 148.165 866.339 147.709C866.15 147.254 866.053 146.766 866.053 146.273V141.227" stroke="#343757" stroke-width="1.51123" stroke-miterlimit="10"/>
<path d="M865.663 165.687C865.942 165.687 866.217 165.632 866.475 165.526C866.732 165.419 866.966 165.263 867.163 165.066C867.36 164.869 867.516 164.635 867.622 164.378C867.729 164.121 867.784 163.845 867.784 163.566C867.784 163.288 867.729 163.012 867.622 162.755C867.516 162.498 867.36 162.264 867.163 162.067C866.966 161.87 866.732 161.714 866.475 161.607C866.217 161.501 865.942 161.446 865.663 161.446C865.101 161.446 864.561 161.669 864.164 162.067C863.766 162.465 863.543 163.004 863.543 163.566C863.543 164.129 863.766 164.668 864.164 165.066C864.561 165.464 865.101 165.687 865.663 165.687Z" fill="#DA5040"/>
<path d="M874.304 149.332H871.416V153.695H874.304V149.332Z" fill="#343757"/>
<path d="M904.529 188.307H899.58C899.409 188.307 899.238 188.273 899.078 188.207C898.758 188.071 898.504 187.814 898.371 187.493C898.307 187.333 898.275 187.162 898.276 186.99V180.616C898.275 180.119 898.372 179.627 898.561 179.167C898.75 178.707 899.028 178.289 899.378 177.937C899.729 177.584 900.146 177.305 900.606 177.115C901.065 176.924 901.557 176.826 902.054 176.826H904.309L905.845 186.99C905.845 187.339 905.706 187.674 905.46 187.922C905.212 188.168 904.878 188.306 904.529 188.307Z" fill="#1967D2"/>
<path d="M904.187 176.826C905.193 176.826 906.157 177.226 906.867 177.936C907.578 178.647 907.978 179.611 907.978 180.616V187.003C907.978 187.349 907.84 187.68 907.596 187.925C907.351 188.169 907.02 188.307 906.674 188.307H901.713C901.368 188.307 901.036 188.169 900.791 187.925C900.547 187.68 900.409 187.349 900.409 187.003V180.616C900.409 179.611 900.809 178.647 901.519 177.936C902.23 177.226 903.194 176.826 904.2 176.826H904.187Z" fill="#4285F4"/>
<path d="M901.811 182.737V180.616C901.831 179.983 902.096 179.383 902.551 178.942C903.006 178.501 903.615 178.255 904.248 178.255C904.882 178.255 905.49 178.501 905.945 178.942C906.4 179.383 906.666 179.983 906.686 180.616V182.737" stroke="#265BB6" stroke-width="1.21873" stroke-miterlimit="10"/>
<path d="M905.04 178.252C905.619 178.252 906.174 178.022 906.583 177.612C906.993 177.202 907.222 176.647 907.222 176.068C907.222 175.489 906.991 174.934 906.582 174.525C906.172 174.116 905.617 173.886 905.038 173.887C904.751 173.887 904.468 173.943 904.203 174.053C903.938 174.163 903.697 174.324 903.495 174.527C903.086 174.936 902.856 175.492 902.856 176.071C902.857 176.65 903.087 177.205 903.497 177.614C903.906 178.023 904.462 178.252 905.04 178.252Z" fill="#EE675C"/>
<path d="M931.414 206.283C931.825 206.283 932.218 206.12 932.509 205.829C932.799 205.539 932.962 205.145 932.962 204.734C932.962 204.323 932.798 203.93 932.508 203.639C932.217 203.349 931.823 203.186 931.413 203.186C931.209 203.186 931.008 203.226 930.82 203.304C930.632 203.382 930.462 203.496 930.318 203.64C930.028 203.931 929.865 204.325 929.865 204.735C929.865 205.146 930.028 205.54 930.319 205.83C930.609 206.12 931.003 206.283 931.414 206.283Z" fill="white"/>
<path d="M920.921 224.247C920.921 224.247 920.994 213.864 931.414 204.747M924.613 212.389L929.366 210.987M923.029 215.545L920.786 211.926" stroke="white" stroke-width="1.21873" stroke-miterlimit="10"/>
</g>
</g>
<defs>
<clipPath id="clip0_2_1249">
<rect width="1247.98" height="298.59" fill="white" transform="translate(0.507812)"/>
</clipPath>
</defs>
</svg>
