<svg width="75" height="24" viewBox="0 0 75 24" fill="none" xmlns="http://www.w3.org/2000/svg">
<g clip-path="url(#clip0_1_2341)">
<g clip-path="url(#clip1_1_2341)">
<path d="M9.74011 8.19V10.65H15.6201C15.4401 12.03 14.9801 13.04 14.2801 13.75C13.4201 14.61 12.0801 15.55 9.74011 15.55C6.12011 15.55 3.29011 12.63 3.29011 9.01C3.29011 5.39 6.12011 2.47 9.74011 2.47C11.6901 2.47 13.1201 3.24 14.1701 4.23L15.9001 2.5C14.4401 1.08 12.4801 0 9.74011 0C4.78011 0 0.610107 4.04 0.610107 9C0.610107 13.96 4.78011 18 9.74011 18C12.4201 18 14.4401 17.12 16.0201 15.48C17.6401 13.86 18.1501 11.57 18.1501 9.73C18.1501 9.16 18.1101 8.63 18.0201 8.19H9.74011Z" fill="#4285F4"/>
<path d="M25.4999 6.19C22.2899 6.19 19.6699 8.63 19.6699 12C19.6699 15.34 22.2899 17.81 25.4999 17.81C28.7099 17.81 31.3299 15.35 31.3299 12C31.3299 8.63 28.7099 6.19 25.4999 6.19ZM25.4999 15.52C23.7399 15.52 22.2199 14.07 22.2199 12C22.2199 9.91 23.7399 8.48 25.4999 8.48C27.2599 8.48 28.7799 9.91 28.7799 12C28.7799 14.07 27.2599 15.52 25.4999 15.52Z" fill="#EA4335"/>
<path d="M54.08 7.49H53.99C53.42 6.81 52.32 6.19 50.93 6.19C48.03 6.19 45.5 8.72 45.5 12C45.5 15.26 48.03 17.81 50.93 17.81C52.32 17.81 53.42 17.19 53.99 16.49H54.08V17.3C54.08 19.52 52.89 20.71 50.98 20.71C49.42 20.71 48.45 19.59 48.05 18.64L45.83 19.56C46.47 21.1 48.16 22.99 50.98 22.99C53.97 22.99 56.5 21.23 56.5 16.94V6.49H54.08V7.49ZM51.15 15.52C49.39 15.52 48.05 14.02 48.05 12C48.05 9.95 49.39 8.48 51.15 8.48C52.89 8.48 54.25 9.98 54.25 12.02C54.26 14.05 52.89 15.52 51.15 15.52Z" fill="#4285F4"/>
<path d="M38.4999 6.19C35.2899 6.19 32.6699 8.63 32.6699 12C32.6699 15.34 35.2899 17.81 38.4999 17.81C41.7099 17.81 44.3299 15.35 44.3299 12C44.3299 8.63 41.7099 6.19 38.4999 6.19ZM38.4999 15.52C36.7399 15.52 35.2199 14.07 35.2199 12C35.2199 9.91 36.7399 8.48 38.4999 8.48C40.2599 8.48 41.7799 9.91 41.7799 12C41.7799 14.07 40.2599 15.52 38.4999 15.52Z" fill="#FBBC05"/>
<path d="M58.5 0.240005H61.01V17.81H58.5V0.240005Z" fill="#34A853"/>
<path d="M68.76 15.52C67.46 15.52 66.54 14.93 65.94 13.76L73.71 10.55L73.45 9.89C72.97 8.59 71.49 6.19 68.48 6.19C65.49 6.19 63 8.54 63 12C63 15.26 65.46 17.81 68.76 17.81C71.42 17.81 72.96 16.18 73.6 15.24L71.62 13.92C70.96 14.88 70.06 15.52 68.76 15.52ZM68.58 8.37C69.61 8.37 70.49 8.9 70.78 9.65L65.53 11.82C65.53 9.38 67.26 8.37 68.58 8.37Z" fill="#EA4335"/>
</g>
</g>
<defs>
<clipPath id="clip0_1_2341">
<rect width="74" height="24" fill="white" transform="translate(0.5)"/>
</clipPath>
<clipPath id="clip1_1_2341">
<rect width="74" height="24" fill="white" transform="translate(0.5)"/>
</clipPath>
</defs>
</svg>
